<?xml version="1.0" encoding="utf-8"?>
<!-- Generator: Adobe Illustrator 25.4.1, SVG Export Plug-In . SVG Version: 6.00 Build 0)  -->
<svg version="1.1" id="레이어_1" xmlns="http://www.w3.org/2000/svg" xmlns:xlink="http://www.w3.org/1999/xlink" x="0px"
	 y="0px" viewBox="0 0 128 128" style="enable-background:new 0 0 128 128;" xml:space="preserve">
<style type="text/css">
	.st0{fill:#E5E5E5;stroke:#858585;stroke-width:0.5;}
	.st1{fill:url(#SVGID_1_);}
	
		.st2{opacity:0.5;clip-path:url(#SVGID_00000136374195359095344390000001167231200304875687_);filter:url(#Gaussian_Blur);enable-background:new    ;}
	.st3{fill:#FF3D45;}
	
		.st4{opacity:0.5;clip-path:url(#SVGID_00000006698141705344612210000005804790968431261883_);filter:url(#Gaussian_Blur);enable-background:new    ;}
	.st5{fill:#E0FFFF;}
	.st6{clip-path:url(#SVGID_00000087413443036355500760000011524424886670336139_);filter:url(#Gaussian_Blur);}
	.st7{fill:#FFFFFF;}
	
		.st8{opacity:0.5;clip-path:url(#SVGID_00000129920558601925156050000007716609382035195800_);filter:url(#Gaussian_Blur);enable-background:new    ;}
	.st9{fill:#FF8000;}
	
		.st10{opacity:0.5;clip-path:url(#SVGID_00000059302101599959944710000009977082556325342353_);filter:url(#Gaussian_Blur);enable-background:new    ;}
	.st11{fill:#FFFF00;}
	
		.st12{opacity:0.5;clip-path:url(#SVGID_00000008871295270397621010000017736571402444375481_);filter:url(#Gaussian_Blur);enable-background:new    ;}
	.st13{fill:#5EFF00;}
	
		.st14{opacity:0.5;clip-path:url(#SVGID_00000054263432221151615760000009525984942131223428_);filter:url(#Gaussian_Blur);enable-background:new    ;}
	.st15{fill:#00D3DF;}
	
		.st16{opacity:0.5;clip-path:url(#SVGID_00000026158446569642644940000002444875513750586521_);filter:url(#Gaussian_Blur);enable-background:new    ;}
	.st17{fill:#0012DF;}
	
		.st18{opacity:0.5;clip-path:url(#SVGID_00000183227375250903300000000007624364222586482560_);filter:url(#Gaussian_Blur);enable-background:new    ;}
	.st19{fill:#6B476B;}
	.st20{opacity:0.22;fill:#636363;stroke:#000000;stroke-width:0.25;enable-background:new    ;}
	.st21{opacity:0.5;fill:none;stroke:#505050;stroke-width:0.25;enable-background:new    ;}
	.st22{opacity:0.3;fill:none;stroke:#505050;stroke-width:0.25;enable-background:new    ;}
</style>
<filter  id="Gaussian_Blur">
	<feGaussianBlur  in="SourceGraphic" stdDeviation="3"></feGaussianBlur>
</filter>
<g>
	<g id="Layer_3_copy">
		<g>
			<path class="st0" d="M64,0C28.7,0,0,28.7,0,64c0,35.3,28.7,64,64,64c35.3,0,64-28.7,64-64C128,28.7,99.3,0,64,0z M64,81.7
				c-8.8,0-16-7.2-16-16c0-8.8,7.2-16,16-16c8.8,0,16,7.2,16,16S72.8,81.7,64,81.7z"/>
		</g>
	</g>
	<g id="Layer_1">
		<g>
			
				<linearGradient id="SVGID_1_" gradientUnits="userSpaceOnUse" x1="58.4072" y1="121.3459" x2="69.6373" y2="10.2108" gradientTransform="matrix(1 0 0 -1 0 130)">
				<stop  offset="0" style="stop-color:#CCCCCC"/>
				<stop  offset="1" style="stop-color:#A1A6A8"/>
			</linearGradient>
			<path class="st1" d="M64,2.2C29.9,2.2,2.2,29.9,2.2,64s27.7,61.8,61.8,61.8s61.8-27.7,61.8-61.8S98.1,2.2,64,2.2z M64,81.1
				c-8.5,0-15.4-6.9-15.4-15.4S55.5,50.2,64,50.2c8.5,0,15.4,6.9,15.4,15.4S72.5,81.1,64,81.1z"/>
		</g>
		<g>
			<g>
				<g>
					<defs>
						<path id="SVGID_00000088116012605240205060000006960488203893870480_" d="M64,2.2C29.9,2.2,2.2,29.9,2.2,64
							s27.7,61.8,61.8,61.8s61.8-27.7,61.8-61.8S98.1,2.2,64,2.2z M64,81.1c-8.5,0-15.4-6.9-15.4-15.4S55.5,50.2,64,50.2
							c8.5,0,15.4,6.9,15.4,15.4S72.5,81.1,64,81.1z"/>
					</defs>
					<clipPath id="SVGID_00000068659624048078594990000011055428565643969720_">
						<use xlink:href="#SVGID_00000088116012605240205060000006960488203893870480_"  style="overflow:visible;"/>
					</clipPath>
					
						<g style="opacity:0.5;clip-path:url(#SVGID_00000068659624048078594990000011055428565643969720_);filter:url(#Gaussian_Blur);enable-background:new    ;">
						<polygon class="st3" points="169.4,77.2 64,67.2 -41.4,77.2 -41.4,57.2 64,67.2 169.4,57.2 						"/>
					</g>
				</g>
				<g>
					<defs>
						<path id="SVGID_00000172437629490569815530000017288217222672952448_" d="M64,2.2C29.9,2.2,2.2,29.9,2.2,64
							s27.7,61.8,61.8,61.8s61.8-27.7,61.8-61.8S98.1,2.2,64,2.2z M64,81.1c-8.5,0-15.4-6.9-15.4-15.4S55.5,50.2,64,50.2
							c8.5,0,15.4,6.9,15.4,15.4S72.5,81.1,64,81.1z"/>
					</defs>
					<clipPath id="SVGID_00000048469730085072987830000004285118449926865077_">
						<use xlink:href="#SVGID_00000172437629490569815530000017288217222672952448_"  style="overflow:visible;"/>
					</clipPath>
					
						<g style="opacity:0.5;clip-path:url(#SVGID_00000048469730085072987830000004285118449926865077_);filter:url(#Gaussian_Blur);enable-background:new    ;">
						<polygon class="st5" points="-20.2,140.1 63.6,65.7 80.5,-45.1 147.4,-8.8 63.6,65.7 46.8,176.5 						"/>
					</g>
				</g>
				<g>
					<defs>
						<path id="SVGID_00000151508560121758496630000015865138823957320609_" d="M64,2.2C29.9,2.2,2.2,29.9,2.2,64
							s27.7,61.8,61.8,61.8s61.8-27.7,61.8-61.8S98.1,2.2,64,2.2z M64,81.1c-8.5,0-15.4-6.9-15.4-15.4S55.5,50.2,64,50.2
							c8.5,0,15.4,6.9,15.4,15.4S72.5,81.1,64,81.1z"/>
					</defs>
					<clipPath id="SVGID_00000168796342441273116640000010762241134280997786_">
						<use xlink:href="#SVGID_00000151508560121758496630000015865138823957320609_"  style="overflow:visible;"/>
					</clipPath>
					<g style="clip-path:url(#SVGID_00000168796342441273116640000010762241134280997786_);filter:url(#Gaussian_Blur);">
						<polygon class="st7" points="-7.3,147.1 63.6,65.7 93.3,-38.1 134.5,-15.8 63.6,65.7 33.9,169.5 						"/>
					</g>
				</g>
				<g>
					<defs>
						<path id="SVGID_00000136383881695075153580000005525964753984919703_" d="M64,2.2C29.9,2.2,2.2,29.9,2.2,64
							s27.7,61.8,61.8,61.8s61.8-27.7,61.8-61.8S98.1,2.2,64,2.2z M64,81.1c-8.5,0-15.4-6.9-15.4-15.4S55.5,50.2,64,50.2
							c8.5,0,15.4,6.9,15.4,15.4S72.5,81.1,64,81.1z"/>
					</defs>
					<clipPath id="SVGID_00000108272420192379732090000003821266084216962750_">
						<use xlink:href="#SVGID_00000136383881695075153580000005525964753984919703_"  style="overflow:visible;"/>
					</clipPath>
					
						<g style="opacity:0.5;clip-path:url(#SVGID_00000108272420192379732090000003821266084216962750_);filter:url(#Gaussian_Blur);enable-background:new    ;">
						<polygon class="st9" points="160.7,90.7 64,67.2 -35.5,62.2 -32.8,43.6 64,67.2 163.5,72.1 						"/>
					</g>
				</g>
				<g>
					<defs>
						<path id="SVGID_00000118374956107973391500000016459794550307595442_" d="M64,2.2C29.9,2.2,2.2,29.9,2.2,64
							s27.7,61.8,61.8,61.8s61.8-27.7,61.8-61.8S98.1,2.2,64,2.2z M64,81.1c-8.5,0-15.4-6.9-15.4-15.4S55.5,50.2,64,50.2
							c8.5,0,15.4,6.9,15.4,15.4S72.5,81.1,64,81.1z"/>
					</defs>
					<clipPath id="SVGID_00000061434156150612278640000010131776108983605639_">
						<use xlink:href="#SVGID_00000118374956107973391500000016459794550307595442_"  style="overflow:visible;"/>
					</clipPath>
					
						<g style="opacity:0.5;clip-path:url(#SVGID_00000061434156150612278640000010131776108983605639_);filter:url(#Gaussian_Blur);enable-background:new    ;">
						<polygon class="st11" points="152.1,104.3 64,67.2 -29.5,47.3 -24.1,30 64,67.2 157.5,87.1 						"/>
					</g>
				</g>
				<g>
					<defs>
						<path id="SVGID_00000003809040941639812630000005844776937401836684_" d="M64,2.2C29.9,2.2,2.2,29.9,2.2,64
							s27.7,61.8,61.8,61.8s61.8-27.7,61.8-61.8S98.1,2.2,64,2.2z M64,81.1c-8.5,0-15.4-6.9-15.4-15.4S55.5,50.2,64,50.2
							c8.5,0,15.4,6.9,15.4,15.4S72.5,81.1,64,81.1z"/>
					</defs>
					<clipPath id="SVGID_00000079448598388463337830000005955443337340414602_">
						<use xlink:href="#SVGID_00000003809040941639812630000005844776937401836684_"  style="overflow:visible;"/>
					</clipPath>
					
						<g style="opacity:0.5;clip-path:url(#SVGID_00000079448598388463337830000005955443337340414602_);filter:url(#Gaussian_Blur);enable-background:new    ;">
						<polygon class="st13" points="143.4,117.9 64,67.2 -23.5,32.3 -15.4,16.5 64,67.2 151.5,102 						"/>
					</g>
				</g>
				<g>
					<defs>
						<path id="SVGID_00000080197341851490241680000011073854161498628483_" d="M64,2.2C29.9,2.2,2.2,29.9,2.2,64
							s27.7,61.8,61.8,61.8s61.8-27.7,61.8-61.8S98.1,2.2,64,2.2z M64,81.1c-8.5,0-15.4-6.9-15.4-15.4S55.5,50.2,64,50.2
							c8.5,0,15.4,6.9,15.4,15.4S72.5,81.1,64,81.1z"/>
					</defs>
					<clipPath id="SVGID_00000183954422337086108770000014276632346021996985_">
						<use xlink:href="#SVGID_00000080197341851490241680000011073854161498628483_"  style="overflow:visible;"/>
					</clipPath>
					
						<g style="opacity:0.5;clip-path:url(#SVGID_00000183954422337086108770000014276632346021996985_);filter:url(#Gaussian_Blur);enable-background:new    ;">
						<polygon class="st15" points="134.8,131.4 64,67.2 -17.6,17.4 -6.8,2.9 64,67.2 145.6,117 						"/>
					</g>
				</g>
				<g>
					<defs>
						<path id="SVGID_00000137845664974611578860000011204132706567607973_" d="M64,2.2C29.9,2.2,2.2,29.9,2.2,64
							s27.7,61.8,61.8,61.8s61.8-27.7,61.8-61.8S98.1,2.2,64,2.2z M64,81.1c-8.5,0-15.4-6.9-15.4-15.4S55.5,50.2,64,50.2
							c8.5,0,15.4,6.9,15.4,15.4S72.5,81.1,64,81.1z"/>
					</defs>
					<clipPath id="SVGID_00000065045884932894877190000017846457136206551958_">
						<use xlink:href="#SVGID_00000137845664974611578860000011204132706567607973_"  style="overflow:visible;"/>
					</clipPath>
					
						<g style="opacity:0.5;clip-path:url(#SVGID_00000065045884932894877190000017846457136206551958_);filter:url(#Gaussian_Blur);enable-background:new    ;">
						<polygon class="st17" points="126.1,145 64,67.2 -11.6,2.4 1.9,-10.7 64,67.2 139.6,131.9 						"/>
					</g>
				</g>
				<g>
					<defs>
						<path id="SVGID_00000139253999564519534550000014423337391824375184_" d="M64,2.2C29.9,2.2,2.2,29.9,2.2,64
							s27.7,61.8,61.8,61.8s61.8-27.7,61.8-61.8S98.1,2.2,64,2.2z M64,81.1c-8.5,0-15.4-6.9-15.4-15.4S55.5,50.2,64,50.2
							c8.5,0,15.4,6.9,15.4,15.4S72.5,81.1,64,81.1z"/>
					</defs>
					<clipPath id="SVGID_00000083789955351631335370000006728295084244080313_">
						<use xlink:href="#SVGID_00000139253999564519534550000014423337391824375184_"  style="overflow:visible;"/>
					</clipPath>
					
						<g style="opacity:0.5;clip-path:url(#SVGID_00000083789955351631335370000006728295084244080313_);filter:url(#Gaussian_Blur);enable-background:new    ;">
						<polygon class="st19" points="117.5,158.6 64,67.2 -5.7,-12.6 10.5,-24.2 64,67.2 133.7,146.9 						"/>
					</g>
				</g>
			</g>
		</g>
	</g>
	<g id="Layer_2">
		<g>
			<path class="st20" d="M64,46.7c-10.5,0-19,8.5-19,19c0,10.5,8.5,19,19,19s19-8.5,19-19S74.5,46.7,64,46.7z M64,71.9
				c-3.5,0-6.3-2.8-6.3-6.3c0-3.5,2.8-6.3,6.3-6.3c3.5,0,6.3,2.8,6.3,6.3C70.3,69,67.5,71.9,64,71.9z"/>
		</g>
		<circle class="st21" cx="64" cy="65.5" r="12.4"/>
		<ellipse class="st22" cx="64" cy="65.5" rx="7.9" ry="7.7"/>
	</g>
</g>
</svg>
